<svg xmlns="http://www.w3.org/2000/svg" viewBox="0 0 200 200">
<g id="Symbols" fill="none" stroke="#36f" stroke-width="9" stroke-linejoin="round" stroke-linecap="round">
<circle cx="85" cy="85" r="60"/>
<!-- CSE Icon -->
 <path stroke="#000" d="M107,63 A31 31 0 1 0 107 107" stroke-width="7" /> 
<!-- Quick Search Engine -->
<!--<g id="Black-S" fill="#000" stroke="none" transform="scale(0.7) translate(50,158)">
<path class="monochrome-0 multicolor-0:tintColor hierarchical-0:primary SFSymbolsPreviewWireframe" d="M75.6348 3.17383C78.3203 3.17383 81.543 1.80664 86.6211 1.80664C91.8945 1.80664 93.7012 3.17383 97.7051 3.17383C103.223 3.17383 106.934 0.634766 106.934-3.90625C106.934-10.3516 101.514-17.1875 89.502-17.1875C82.8613-17.1875 80.3223-15.5762 76.3672-15.0391L71.4355-25.293C66.5527-35.4492 56.8359-39.3555 47.9004-39.3555L43.0176-39.3555C40.5762-39.3555 39.1113-40.6738 39.1113-42.8223C39.1113-46.3867 43.1641-47.2656 47.5586-47.2656C60.3516-47.2656 71.7773-41.2109 78.3691-27.7344L80.8594-22.6562C83.3984-23.0957 86.1816-23.3398 89.0625-23.3398C91.3574-23.3398 93.75-23.1934 96.0938-22.4121C98.6816-23.291 101.562-24.3164 103.369-25.5371C108.105-22.6074 112.842-18.7988 122.998-18.7988C130.176-18.7988 135.449-22.8027 135.449-33.4473C135.449-45.9473 127.295-58.2031 111.67-57.0801L103.76-70.2148C98.7793-78.4668 90.8691-81.8848 83.4961-81.8848C77.6855-81.8848 66.2598-78.8574 66.2598-74.4141C66.2598-71.7285 72.8516-67.2852 77.832-63.8184L98.4863-49.4141C96.7773-48.0469 95.7031-46.9727 92.7734-46.9727C89.0625-46.9727 84.8145-49.9023 81.1523-51.7578C68.2129-60.4004 61.0352-66.3574 46.582-66.3574C34.2285-66.3574 22.6074-59.9121 17.2852-43.0664C12.9395-43.4082 9.76562-40.7715 9.76562-36.9141C9.76562-32.7148 13.2324-29.9316 18.3105-30.127C24.4141-18.6035 31.7871-14.8926 44.9707-14.8926C45.752-14.8926 46.582-14.8926 47.4121-14.9414L63.7207-1.07422C67.5781 2.24609 72.168 3.17383 75.6348 3.17383ZM42.6758 6.49414C49.1699 6.49414 53.8086 5.46875 57.7148 3.02734L46.3379-6.73828C45.8008-6.68945 45.2148-6.64062 44.5801-6.64062C42.9199-6.64062 38.7207-7.27539 35.6934-7.27539C31.543-7.27539 28.9551-5.12695 28.9551-1.85547C28.9551 3.125 34.375 6.49414 42.6758 6.49414ZM117.383-34.1309C114.893-34.1309 112.842-36.2305 112.842-38.7207C112.842-41.3086 114.893-43.457 117.432-43.457C119.971-43.457 122.021-41.4062 122.021-38.916C122.021-36.2793 119.922-34.1309 117.383-34.1309Z"/>
</g>-->
<!-- Emoji Search -->
<!--<g id="Regular-S" transform="scale(0.9) translate(46,130)">
<path fill="#000" class="monochrome-0 multicolor-0:tintColor hierarchical-0:tertiary SFSymbolsPreviewWireframe" d="M48.8281 6.73828C72.0215 6.73828 90.8203-12.0605 90.8203-35.2539C90.8203-58.4473 72.0215-77.2461 48.8281-77.2461C25.6348-77.2461 6.83594-58.4473 6.83594-35.2539C6.83594-12.0605 25.6348 6.73828 48.8281 6.73828Z"/>
 <path fill="#fff" stroke="#fff" stroke-width="1" class="monochrome-1 multicolor-1:white hierarchical-1:primary SFSymbolsPreviewWireframe" d="M48.8281-16.8945C39.9414-16.8945 34.082-22.7051 34.082-25.5859C34.082-26.709 35.2051-27.2461 36.3281-26.7578C39.3555-25.2441 42.8223-23.5352 48.8281-23.5352C54.834-23.5352 58.1543-25.3906 61.3281-26.7578C62.4512-27.1973 63.5742-26.709 63.5742-25.5859C63.5742-22.7051 57.666-16.8945 48.8281-16.8945ZM36.9141-39.3555C34.4238-39.3555 32.373-41.6016 32.373-44.6289C32.373-47.7539 34.4238-50 36.9141-50C39.3555-50 41.5527-47.7539 41.5527-44.6289C41.5527-41.6016 39.3555-39.3555 36.9141-39.3555ZM60.6934-39.3555C58.1543-39.3555 56.1035-41.6016 56.1035-44.6289C56.1035-47.7539 58.1543-50 60.6934-50C63.1348-50 65.332-47.7539 65.332-44.6289C65.332-41.6016 63.1348-39.3555 60.6934-39.3555Z"/>
</g>-->
<line x1="128" y1="128" x2="162" y2="162" />
</g>
</svg>