<svg xmlns="http://www.w3.org/2000/svg" viewBox="0 0 200 200" width="1024px" height="1024px">
<g fill="none" stroke="#000" stroke-linecap="round" stroke-linejoin="round" stroke-width="9">
  <circle cx="85" cy="85" r="60"/>
  <path fill="#000" stroke="none" d="M52.537 92.582c0 14.386 7.726 19.668 30.113 32.28 1.025.552 2.01.789 2.641.789.63 0 1.656-.237 2.641-.789 22.427-12.573 30.113-17.894 30.113-32.28V62.429c0-4.138-1.774-5.439-5.124-6.858-4.65-1.931-19.668-7.331-24.319-8.947-1.064-.355-2.207-.591-3.31-.591-1.104 0-2.247.315-3.272.59-4.651 1.341-19.708 7.056-24.359 8.948-3.31 1.38-5.124 2.72-5.124 6.858Zm33.582 25.777V52.497c.197.04.433.118.749.236 5.951 2.365 17.5 6.543 23.61 8.632 1.063.394 1.3.946 1.3 2.286v27.473c0 12.178-5.833 15.371-24.043 26.447-.591.394-1.143.67-1.616.788z"/>
  <path d="m128 128 34 34"/>
</g>
</svg>