<svg xmlns="http://www.w3.org/2000/svg" viewBox="0 0 200 200">
<g id="Symbols" fill="none" stroke="#36f" stroke-width="9" stroke-linejoin="round" stroke-linecap="round">
<circle stroke="#000" cx="85" cy="85" r="60"/>
<path fill="#000" stroke="none" style="display:inline;stroke-width:37.9481" class="monochrome-1 multicolor-1:white hierarchical-1:primary SFSymbolsPreviewWireframe" d="M127 85c0 23.141-18.818 42-42 42-23.141 0-42-18.859-42-42 0-23.182 18.859-42 42-42 23.182 0 42 18.818 42 42ZM97.93 96.406c-3.089 1.688-6.754 3.623-12.93 3.623-6.218 0-9.841-1.976-12.97-3.623-.865-.412-1.895.041-1.895 1.07 0 2.8 5.97 8.73 14.865 8.73 8.853 0 14.824-5.93 14.824-8.73 0-1.029-.989-1.482-1.895-1.07zM67.417 75.324c0 3.376 2.305 5.805 4.982 5.805 2.718 0 5.106-2.429 5.106-5.805 0-3.46-2.388-5.889-5.106-5.889-2.677 0-4.982 2.43-4.982 5.889zm25.158 0c0 3.376 2.306 5.805 4.983 5.805 2.717 0 5.106-2.429 5.106-5.805 0-3.46-2.389-5.889-5.106-5.889-2.677 0-4.983 2.43-4.983 5.889z"/>
<line stroke="#000" x1="128" y1="128" x2="162" y2="162" />
</g>
</svg>