<svg xmlns="http://www.w3.org/2000/svg" viewBox="0 0 200 200">
<g id="Symbols" fill="none" stroke="#36f" stroke-width="9" stroke-linejoin="round" stroke-linecap="round">
<circle stroke="#000" cx="85" cy="85" r="60"/>
<g id="Regular-S" transform="translate(36,120)">
<path stroke-width="0" fill="#000" class="monochrome-0 multicolor-0:tintColor hierarchical-0:tertiary SFSymbolsPreviewWireframe" d="M48.8281 6.73828C72.0215 6.73828 90.8203-12.0605 90.8203-35.2539C90.8203-58.4473 72.0215-77.2461 48.8281-77.2461C25.6348-77.2461 6.83594-58.4473 6.83594-35.2539C6.83594-12.0605 25.6348 6.73828 48.8281 6.73828Z"/>
<path fill="#fff" stroke="#fff" stroke-width="1" class="monochrome-1 multicolor-1:white hierarchical-1:primary SFSymbolsPreviewWireframe" d="M48.8281-16.8945C39.9414-16.8945 34.082-22.7051 34.082-25.5859C34.082-26.709 35.2051-27.2461 36.3281-26.7578C39.3555-25.2441 42.8223-23.5352 48.8281-23.5352C54.834-23.5352 58.1543-25.3906 61.3281-26.7578C62.4512-27.1973 63.5742-26.709 63.5742-25.5859C63.5742-22.7051 57.666-16.8945 48.8281-16.8945ZM36.9141-39.3555C34.4238-39.3555 32.373-41.6016 32.373-44.6289C32.373-47.7539 34.4238-50 36.9141-50C39.3555-50 41.5527-47.7539 41.5527-44.6289C41.5527-41.6016 39.3555-39.3555 36.9141-39.3555ZM60.6934-39.3555C58.1543-39.3555 56.1035-41.6016 56.1035-44.6289C56.1035-47.7539 58.1543-50 60.6934-50C63.1348-50 65.332-47.7539 65.332-44.6289C65.332-41.6016 63.1348-39.3555 60.6934-39.3555Z"/>
</g>
<line stroke="#000" x1="128" y1="128" x2="162" y2="162" />
</g>
</svg>