<svg xmlns="http://www.w3.org/2000/svg" viewBox="0 0 200 200">
<g id="Symbols" fill="none" stroke="#36f" stroke-width="9" stroke-linejoin="round" stroke-linecap="round">
<circle stroke="#000" cx="85" cy="85" r="60"/>
<g id="Black-S" fill="#000" stroke="none" transform="scale(0.9) translate(48,131)">
   <path class="monochrome-0 multicolor-0:systemBlueColor hierarchical-0:primary SFSymbolsPreviewWireframe" d="M15.1367-19.4824C15.1367-0.878906 29.0527 10.498 46.2402 10.498C55.7617 10.498 63.3789 7.37305 69.4824 0.976562C76.4648-6.34766 80.5664-20.3613 81.6406-23.6328C83.3984-29.0527 85.5957-35.9375 86.3281-38.8184C87.1582-42.1387 85.6934-45.0684 82.7637-45.8984C79.3945-46.875 76.6602-45.2148 75.5371-42.627L70.0195-29.6875C69.6777-28.9062 69.4336-28.7598 69.043-28.7598C68.7012-28.7598 68.3594-28.9551 68.3594-29.7852L68.3594-71.6309C68.3594-75.0977 65.9668-77.4902 62.5488-77.4902C59.1797-77.4902 56.7383-75.0488 56.7383-71.6309L56.7383-38.8672C56.0059-39.1113 55.2734-39.3555 54.4922-39.5508L54.4922-76.709C54.4922-80.127 52.0996-82.5195 48.6816-82.5195C45.2637-82.5195 42.8711-80.127 42.8711-76.709L42.8711-39.9414C42.1387-39.8438 41.3574-39.7949 40.625-39.6973L40.625-73.7305C40.625-77.0996 38.1836-79.5898 34.8145-79.5898C31.4453-79.5898 29.0039-77.0996 29.0039-73.7305L29.0039-37.0117C28.2227-36.7188 27.4902-36.377 26.7578-36.0352L26.7578-61.7188C26.7578-65.1367 24.3652-67.5781 20.9961-67.5781C17.5781-67.5781 15.1367-65.1367 15.1367-61.7188Z"/>
  </g>
<line stroke="#000" x1="128" y1="128" x2="162" y2="162" />
</g>
</svg>