<?xml version="1.0" encoding="UTF-8"?>
<svg height="600" width="800" xmlns="http://www.w3.org/2000/svg" xmlns:xlink="http://www.w3.org/1999/xlink">
    <g id="Notes" font-family="'LucidaGrande', 'Lucida Grande', sans-serif" font-size="13">
        <rect fill="white" height="600.0" width="800.0" x="0.0" y="0.0" />
        <g font-size="13">
            <text x="18.0" y="176.0">Small</text>
            <text x="18.0" y="376.0">Medium</text>
            <text x="18.0" y="576.0">Large</text>
        </g>
        <g font-size="9">
            <text x="250.0" y="30.0">Ultralight</text>
            <text x="450.0" y="30.0">Regular</text>
            <text x="650.0" y="30.0">Black</text>
            <text id="template-version" fill="#505050" text-anchor="end" x="785.0" y="575.0">Template v.3.0</text>
            <a href="https://github.com/swhitty/SwiftDraw">
                <text fill="#505050" text-anchor="end" x="785.0" y="590.0">https://github.com/swhitty/SwiftDraw</text>
            </a>
        </g>
    </g>
    <g id="Guides" stroke="rgb(39, 170, 225)" stroke-width="0.5">
        <path id="Capline-S" d="M18,76 l800,0" />
        <path id="H-reference" d="M85,145.755 L87.685,145.755 L113.369,79.287 L114.052,79.287 L114.052,76 L112.148,76 L85,145.755 Z M95.693,121.536 L130.996,121.536 L130.263,119.313 L96.474,119.313 L95.693,121.536 Z M139.15,145.755 L141.787,145.755 L114.638,76 L113.466,76 L113.466,79.287 L139.15,145.755 Z" stroke="none" />
        <path id="Baseline-S" d="M18,146 l800,0" />
        <path id="left-margin-Ultralight-S" d="M220,56 l0,110" />
        <path id="right-margin-Ultralight-S" d="M310,56 l0,110" />
        <path id="left-margin-Regular-S" d="M420,56 l0,110" />
        <path id="right-margin-Regular-S" d="M510,56 l0,110" />
        <path id="left-margin-Black-S" d="M620,56 l0,110" />
        <path id="right-margin-Black-S" d="M710,56 l0,110" />
        <path id="Capline-M" d="M18,276 l800,0" />
        <path id="Baseline-M" d="M18,346 l800,0" />
        <path id="Capline-L" d="M18,476 l800,0" />
        <path id="Baseline-L" d="M18,546 l800,0" />
    </g>
    <g id="Symbols">
        <g id="Ultralight-S">
            <path d="M234.375,107.354 C234.375,92.454 246.454,80.375 261.354,80.375 C276.254,80.375 288.333,92.454 288.333,107.354 C288.333,122.254 276.254,134.333 261.354,134.333 C246.454,134.333 234.375,122.254 234.375,107.354 Z M230,107.354 C230,124.671 244.038,138.708 261.354,138.708 C278.671,138.708 292.708,124.671 292.708,107.354 C292.708,90.038 278.671,76 261.354,76 C244.038,76 230,90.038 230,107.354 Z" />
            <path d="M273.247,95.452 C266.685,88.938 256.089,88.964 249.559,95.51 C243.028,102.056 243.028,112.652 249.559,119.199 C256.089,125.745 266.685,125.77 273.247,119.256 C273.914,118.594 273.918,117.517 273.256,116.85 C272.594,116.183 271.517,116.179 270.85,116.841 C265.619,122.034 257.173,122.013 251.968,116.795 C246.762,111.577 246.762,103.131 251.968,97.913 C257.173,92.695 265.619,92.675 270.85,97.867 C271.517,98.529 272.594,98.525 273.256,97.858 C273.918,97.192 273.914,96.114 273.247,95.452 Z" />
            <path d="M280.71,129.804 L296.266,145.359 C297.12,146.214 298.505,146.214 299.359,145.359 C300.214,144.505 300.214,143.12 299.359,142.266 L283.804,126.71 C282.949,125.856 281.564,125.856 280.71,126.71 C279.856,127.564 279.856,128.949 280.71,129.804 Z" />
        </g>
        <g id="Regular-S">
            <path d="M434.375,107.354 C434.375,92.454 446.454,80.375 461.354,80.375 C476.254,80.375 488.333,92.454 488.333,107.354 C488.333,122.254 476.254,134.333 461.354,134.333 C446.454,134.333 434.375,122.254 434.375,107.354 Z M430,107.354 C430,124.671 444.038,138.708 461.354,138.708 C478.671,138.708 492.708,124.671 492.708,107.354 C492.708,90.038 478.671,76 461.354,76 C444.038,76 430,90.038 430,107.354 Z" />
            <path d="M473.247,95.452 C466.685,88.938 456.089,88.964 449.559,95.51 C443.028,102.056 443.028,112.652 449.559,119.199 C456.089,125.745 466.685,125.77 473.247,119.256 C473.914,118.594 473.918,117.517 473.256,116.85 C472.594,116.183 471.517,116.179 470.85,116.841 C465.619,122.034 457.173,122.013 451.968,116.795 C446.762,111.577 446.762,103.131 451.968,97.913 C457.173,92.695 465.619,92.675 470.85,97.867 C471.517,98.529 472.594,98.525 473.256,97.858 C473.918,97.192 473.914,96.114 473.247,95.452 Z" />
            <path d="M480.71,129.804 L496.266,145.359 C497.12,146.214 498.505,146.214 499.359,145.359 C500.214,144.505 500.214,143.12 499.359,142.266 L483.804,126.71 C482.949,125.856 481.564,125.856 480.71,126.71 C479.856,127.564 479.856,128.949 480.71,129.804 Z" />
        </g>
        <g id="Black-S">
            <path d="M634.375,107.354 C634.375,92.454 646.454,80.375 661.354,80.375 C676.254,80.375 688.333,92.454 688.333,107.354 C688.333,122.254 676.254,134.333 661.354,134.333 C646.454,134.333 634.375,122.254 634.375,107.354 Z M630,107.354 C630,124.671 644.038,138.708 661.354,138.708 C678.671,138.708 692.708,124.671 692.708,107.354 C692.708,90.038 678.671,76 661.354,76 C644.038,76 630,90.038 630,107.354 Z" />
            <path d="M673.247,95.452 C666.685,88.938 656.089,88.964 649.559,95.51 C643.028,102.056 643.028,112.652 649.559,119.199 C656.089,125.745 666.685,125.77 673.247,119.256 C673.914,118.594 673.918,117.517 673.256,116.85 C672.594,116.183 671.517,116.179 670.85,116.841 C665.619,122.034 657.173,122.013 651.968,116.795 C646.762,111.577 646.762,103.131 651.968,97.913 C657.173,92.695 665.619,92.675 670.85,97.867 C671.517,98.529 672.594,98.525 673.256,97.858 C673.918,97.192 673.914,96.114 673.247,95.452 Z" />
            <path d="M680.71,129.804 L696.266,145.359 C697.12,146.214 698.505,146.214 699.359,145.359 C700.214,144.505 700.214,143.12 699.359,142.266 L683.804,126.71 C682.949,125.856 681.564,125.856 680.71,126.71 C679.856,127.564 679.856,128.949 680.71,129.804 Z" />
        </g>
    </g>
</svg>